<svg height="512pt" viewBox="0 -18 512 512" width="512pt" xmlns="http://www.w3.org/2000/svg"><path d="m162.546875 29.609375c1.167969 0 2.355469-.273437 3.464844-.851563 17.460937-9.128906 36.367187-13.757812 56.1875-13.757812h49.539062c4.144531 0 7.5-3.359375 7.5-7.5s-3.355469-7.5-7.5-7.5h-49.539062c-21.953125 0-43.785157 5.347656-63.136719 15.464844-3.667969 1.917968-5.089844 6.449218-3.171875 10.121094 1.339844 2.558593 3.953125 4.023437 6.65625 4.023437zm0 0"/><path d="m200 226.792969h-.179688c-4.140624.011719-7.492187 3.378906-7.476562 7.519531.007812 4.136719 3.367188 7.480469 7.5 7.480469h.019531.179688c4.140625-.011719 7.488281-3.378907 7.476562-7.523438-.007812-4.132812-3.367187-7.476562-7.5-7.476562-.003906 0-.011719 0-.019531 0zm0 0"/><path d="m311.738281 226.792969h-.179687c-4.140625.011719-7.488282 3.378906-7.476563 7.519531.011719 4.136719 3.367188 7.480469 7.5 7.480469h.019531.179688c4.140625-.011719 7.492188-3.378907 7.480469-7.523438-.011719-4.132812-3.367188-7.476562-7.5-7.476562-.007813 0-.015625 0-.023438 0zm0 0"/><path d="m215.667969 303.203125c-4.089844.652344-6.878907 4.5-6.222657 8.589844 3.660157 22.917969 23.15625 39.550781 46.355469 39.550781 23.203125 0 42.695313-16.632812 46.355469-39.550781.65625-4.089844-2.132812-7.9375-6.222656-8.589844-4.085938-.652344-7.933594 2.132813-8.585938 6.222656-2.492187 15.597657-15.757812 26.917969-31.546875 26.917969-15.785156 0-29.054687-11.320312-31.542969-26.917969-.65625-4.089843-4.503906-6.875-8.589843-6.222656zm0 0"/><path d="m248.878906 301.921875h13.84375c5.375 0 10.472656-2.328125 13.992188-6.394531 3.515625-4.0625 5.089844-9.445313 4.320312-14.761719l-6.921875-47.769531c-1.308593-9.035156-9.183593-15.847656-18.3125-15.847656-9.132812 0-17.003906 6.8125-18.3125 15.847656l-6.921875 47.769531c-.773437 5.320313.804688 10.699219 4.320313 14.761719 3.515625 4.066406 8.617187 6.394531 13.992187 6.394531zm-3.46875-19.007813 6.921875-47.765624c.246094-1.710938 1.738281-3 3.46875-3s3.21875 1.289062 3.46875 3l6.921875 47.765624c.199219 1.382813-.425781 2.347657-.820312 2.796876-.390625.453124-1.253906 1.210937-2.648438 1.210937h-13.84375c-1.394531 0-2.257812-.757813-2.648437-1.210937-.394531-.449219-1.019531-1.414063-.820313-2.796876zm0 0"/><path d="m337.988281 222.292969c2.441407 0 4.839844-1.195313 6.28125-3.390625 2.269531-3.464844 1.296875-8.117188-2.167969-10.382813-19.777343-12.957031-42.460937-6.796875-43.417968-6.53125-3.988282 1.121094-6.3125 5.261719-5.191406 9.25 1.117187 3.988281 5.257812 6.3125 9.246093 5.191407.171875-.046876 17.234375-4.472657 31.148438 4.636718 1.265625.828125 2.691406 1.226563 4.101562 1.226563zm0 0"/><path d="m177.71875 221.066406c13.902344-9.109375 30.851562-4.714844 31.171875-4.628906 3.980469 1.101562 8.101563-1.222656 9.21875-5.199219 1.121094-3.988281-1.203125-8.128906-5.191406-9.25-.957031-.269531-23.640625-6.425781-43.421875 6.527344-3.464844 2.269531-4.433594 6.917969-2.164063 10.382813 1.441407 2.199218 3.835938 3.394531 6.28125 3.394531 1.410157 0 2.835938-.398438 4.105469-1.226563zm0 0"/><path d="m453.167969 383.234375h-70.054688l-25.992187-25.992187c9.953125-13.675782 16.203125-30.253907 17.222656-48.300782l1.226562-21.683594c4.011719 1.121094 8.175782 1.71875 12.355469 1.71875 25.210938 0 45.726563-20.515624 45.726563-45.730468 0-15.585938-7.84375-29.367188-19.785156-37.625 7.867187-12.617188 12-27.050782 12-42.113282v-27.039062c0-37.785156-15.609376-72.460938-41.003907-97.40625l14.007813-14.007812h68.527344c4.140624 0 7.5-3.359376 7.5-7.5 0-4.144532-3.359376-7.5-7.5-7.5h-71.632813c-1.988281 0-3.898437.789062-5.300781 2.195312l-16.882813 16.882812c-18.703125-14.730468-41.390625-24.714843-66.351562-27.972656-4.105469-.535156-7.871094 2.359375-8.40625 6.464844-.539063 4.109375 2.359375 7.871094 6.464843 8.410156 21.578126 2.816406 41.25 11.277344 57.613282 23.773438l-20.058594 20.0625c-2.929688 2.929687-2.929688 7.679687 0 10.605468 1.460938 1.464844 3.382812 2.199219 5.300781 2.199219s3.839844-.734375 5.304688-2.199219l20.816406-20.816406c22.664063 22.210938 36.601563 53.121094 36.601563 86.808594v27.039062c0 12.832032-3.699219 25.097657-10.714844 35.6875-3.894532-1.082031-7.992188-1.671874-12.226563-1.671874-2.464843 0-4.902343.203124-7.308593.589843l.523437-9.246093h4.8125c7.851563 0 14.238281-6.386719 14.238281-14.238282v-47.1875c0-4.144531-3.355468-7.5-7.5-7.5-4.140625 0-7.5 3.355469-7.5 7.5v46.425782h-47.421875c-28.285156 0-51.296875-23.011719-51.296875-51.296876 0-4.140624-3.359375-7.5-7.5-7.5-4.144531 0-7.5 3.359376-7.5 7.5 0 11.632813 3.019532 22.570313 8.304688 32.082032-9.707032 12.082031-24.457032 19.214844-40.027344 19.214844h-113.34375v-46.425782c0-4.144531-3.355469-7.5-7.5-7.5-4.140625 0-7.5 3.355469-7.5 7.5v47.1875c0 7.851563 6.390625 14.238282 14.242188 14.238282h4.8125l.523437 9.238281c-2.40625-.386719-4.847656-.582031-7.308594-.582031-4.234375 0-8.332031.589843-12.230469 1.671874-7.011718-10.589843-10.714843-22.855468-10.714843-35.6875v-27.039062c0-33.917969 13.636719-65.386719 38.398437-88.609375 3.019532-2.832031 3.171875-7.582031.335938-10.601563-2.832032-3.019531-7.578125-3.171874-10.601563-.339843-27.410156 25.710937-43.132812 61.996093-43.132812 99.550781v27.039062c0 15.0625 4.132812 29.496094 12.003906 42.113282-11.941406 8.257812-19.785156 22.039062-19.785156 37.625 0 11.734375 4.445312 22.449218 11.738281 30.554687l-15.453125 15.453125h-66.734375c-4.140625 0-7.5 3.355469-7.5 7.5 0 4.140625 3.359375 7.5 7.5 7.5h69.839844c1.988281 0 3.898437-.792968 5.304687-2.199218l18.84375-18.84375c6.574219 3.667968 14.140625 5.761718 22.1875 5.761718 4.226563 0 8.359375-.574218 12.351563-1.695312l1.226562 21.664062c.738282 13.03125 4.171875 25.480469 10.203125 37.003906 1.339844 2.558594 3.949219 4.023438 6.652344 4.023438 1.171875 0 2.363281-.277344 3.472656-.859375 3.667969-1.917969 5.085938-6.453125 3.164063-10.121094-5.035156-9.617187-7.898438-20.011719-8.515625-30.894531l-6.746094-119.226562h94.265625c18.730469 0 36.542969-7.980469 49.027344-21.675782 12.136718 13.3125 29.605468 21.675782 48.992187 21.675782h28.347657l-6.746094 119.226562c-.804688 14.21875-5.511719 27.339844-13.023438 38.371094l-16.304687-16.304688c-2.929688-2.929687-7.679688-2.929687-10.605469 0-2.929688 2.929688-2.929688 7.679688 0 10.605469l17.246094 17.246094c-13.738282 13.464843-32.523438 21.742187-53.144532 21.742187h-55.476562c-17.316406 0-33.632812-5.691406-47.1875-16.449218-3.242188-2.578126-7.960938-2.03125-10.535156 1.210937-2.578125 3.246094-2.035156 7.960937 1.210937 10.539063 16.003907 12.703124 36.070313 19.699218 56.511719 19.699218h55.476562c24.746094 0 47.285157-9.957031 63.746094-26.140625l27.421875 27.421875c1.40625 1.410156 3.3125 2.199219 5.300781 2.199219h73.160157c4.140625 0 7.5-3.359375 7.5-7.5s-3.359375-7.5-7.5-7.5zm-329.492188-109.257813c-3.851562 0-7.535156-.71875-10.933593-2.019531l11.46875-11.46875c2.929687-2.929687 2.929687-7.679687 0-10.605469-2.929688-2.929687-7.679688-2.929687-10.605469 0l-13.292969 13.289063c-4.585938-5.367187-7.363281-12.324219-7.363281-19.925781 0-16.941406 13.785156-30.722656 30.726562-30.722656 2.789063 0 5.53125.390624 8.1875 1.125l3.289063 58.105468c-3.640625 1.46875-7.496094 2.222656-11.476563 2.222656zm264.25-61.453124c16.941407 0 30.726563 13.785156 30.726563 30.726562s-13.785156 30.726562-30.726563 30.726562c-3.996093 0-7.84375-.757812-11.476562-2.226562l3.289062-58.125c2.652344-.730469 5.394531-1.101562 8.1875-1.101562zm0 0"/><path d="m69.550781 347.726562h-59.40625c-4.140625 0-7.5 3.359376-7.5 7.5 0 4.140626 3.359375 7.5 7.5 7.5h59.40625c4.144531 0 7.5-3.359374 7.5-7.5 0-4.140624-3.355469-7.5-7.5-7.5zm0 0"/><path d="m56.070312 369.761719h-45.925781c-4.140625 0-7.5 3.359375-7.5 7.5 0 4.144531 3.359375 7.5 7.5 7.5h45.925781c4.140626 0 7.5-3.355469 7.5-7.5 0-4.140625-3.359374-7.5-7.5-7.5zm0 0"/><path d="m10.144531 335.390625c4.140625 0 7.5-3.359375 7.5-7.5v-.105469c0-4.140625-3.359375-7.5-7.5-7.5s-7.5 3.359375-7.5 7.5v.105469c0 4.140625 3.355469 7.5 7.5 7.5zm0 0"/><path d="m32.597656 335.335938h.039063c4.140625-.023438 7.480469-3.394532 7.464843-7.535157v-.105469c-.023437-4.140624-3.390624-7.488281-7.535156-7.464843-4.144531.019531-7.484375 3.390625-7.464844 7.535156v.101563c.019532 4.132812 3.371094 7.46875 7.496094 7.46875zm0 0"/><path d="m443.390625 438.925781h-59.40625c-4.140625 0-7.5 3.359375-7.5 7.5 0 4.144531 3.359375 7.5 7.5 7.5h59.40625c4.144531 0 7.5-3.355469 7.5-7.5 0-4.140625-3.355469-7.5-7.5-7.5zm0 0"/><path d="m429.910156 460.964844h-45.925781c-4.144531 0-7.5 3.355468-7.5 7.5 0 4.140625 3.355469 7.5 7.5 7.5h45.925781c4.140625 0 7.5-3.359375 7.5-7.5 0-4.144532-3.359375-7.5-7.5-7.5zm0 0"/><path d="m383.984375 426.589844h.035156c4.140625-.019532 7.484375-3.394532 7.464844-7.535156v-.105469c-.019531-4.128907-3.375-7.464844-7.5-7.464844-.011719 0-.023437 0-.035156 0-4.140625.019531-7.484375 3.394531-7.464844 7.535156v.105469c.019531 4.128906 3.371094 7.464844 7.5 7.464844zm0 0"/><path d="m406.4375 426.535156h.039062c4.140626-.019531 7.484376-3.394531 7.464844-7.535156v-.105469c-.019531-4.140625-3.425781-7.5-7.535156-7.464843-4.144531.019531-7.484375 3.394531-7.464844 7.535156v.105468c.019532 4.128907 3.371094 7.464844 7.496094 7.464844zm0 0"/><path d="m504.5 65.273438h-59.40625c-4.144531 0-7.5 3.359374-7.5 7.5 0 4.144531 3.355469 7.5 7.5 7.5h59.40625c4.140625 0 7.5-3.355469 7.5-7.5 0-4.140626-3.359375-7.5-7.5-7.5zm0 0"/><path d="m491.019531 87.3125h-45.925781c-4.144531 0-7.5 3.359375-7.5 7.5s3.355469 7.5 7.5 7.5h45.925781c4.140625 0 7.5-3.359375 7.5-7.5s-3.359375-7.5-7.5-7.5zm0 0"/><path d="m437.59375 45.335938v.101562c0 4.140625 3.355469 7.5 7.5 7.5 4.140625 0 7.5-3.359375 7.5-7.5v-.101562c0-4.144532-3.359375-7.5-7.5-7.5-4.144531 0-7.5 3.355468-7.5 7.5zm0 0"/><path d="m467.550781 37.777344c-.015625 0-.027343 0-.039062 0-4.140625.019531-7.484375 3.394531-7.464844 7.535156v.105469c.019531 4.128906 3.375 7.464843 7.5 7.464843h.035156c4.144531-.019531 7.484375-3.394531 7.464844-7.535156v-.105468c-.019531-4.128907-3.371094-7.464844-7.496094-7.464844zm0 0"/></svg>